<?xml version="1.0" encoding="UTF-8"?>
<svg width="42px" height="77px" viewBox="0 0 42 77" version="1.1" xmlns="http://www.w3.org/2000/svg" xmlns:xlink="http://www.w3.org/1999/xlink">
    <title>pita-biru</title>
    <g id="Page-1" stroke="none" strokeWidth="1" fill="none" fillRule="evenodd">
        <g id="web-binusmaya-login-page-1" transform="translate(-16.000000, 0.000000)" fillRule="nonzero">
            <g id="pita-biru" transform="translate(16.000000, -0.000000)">
                <rect id="Rectangle" fill="#00A7E4" x="0" y="14" width="28" height="14"></rect>
                <rect id="Rectangle" fill="#9ED1F1" opacity="0.6" x="14" y="28" width="28" height="42"></rect>
                <rect id="Rectangle" fill="#9ED1F1" opacity="0.4" x="0" y="42" width="28" height="14"></rect>
                <rect id="Rectangle" fill="#65BAE8" x="28" y="28" width="14" height="14"></rect>
                <rect id="Rectangle" fill="#65BAE8" opacity="0.4" x="28" y="42" width="14" height="14"></rect>
                <rect id="Rectangle" fill="#9ED1F1" opacity="0.4" x="28" y="56" width="14" height="14"></rect>
                <path d="M35,35 C31.1340068,35 28,31.8659932 28,28 L42,28 C42,31.8659932 38.8659932,35 35,35 Z" id="Path" fill="#00A7E4" opacity="0.65"></path>
                <path d="M35.0326667,76.9580016 C31.1909361,76.955426 28.0772407,73.8417306 28.0746667,70 L42,70 C41.9987627,71.8466141 41.2640113,73.6171042 39.9573828,74.9219824 C38.6507542,76.2268606 36.8792808,76.9592381 35.0326667,76.9580016 Z" id="Path" fill="#9ED1F1" opacity="0.5"></path>
                <path d="M35,49.0466667 C35,45.1806734 38.1340068,42.0466667 42,42.0466667 L42,56.0466667 C38.1340068,56.0466667 35,52.9126599 35,49.0466667 Z" id="Path" fill="#FFFFFF" opacity="0.25"></path>
                <rect id="Rectangle" fill="#FFFFFF" opacity="0.2" x="14" y="55.9953333" width="14" height="14"></rect>
                <path d="M21,63 C21,59.1340068 24.1340068,56 28,56 L28,70 C24.1340068,70 21,66.8659932 21,63 Z" id="Path" fill="#FFFFFF" opacity="0.5"></path>
                <path d="M21,63 C21,66.8659932 17.8659932,70 14,70 L14,56 C17.8659932,56 21,59.1340068 21,63 Z" id="Path" fill="#FFFFFF" opacity="0.3"></path>
                <path d="M7,35 C3.13400675,35 0,31.8659932 0,28 L14,28 C14,31.8659932 10.8659932,35 7,35 Z" id="Path" fill="#65BAE8" opacity="0.65"></path>
                <path d="M7,35 C7,38.8659932 3.86599325,42 0,42 L0,28 C3.86599325,28 7,31.1340068 7,35 Z" id="Path" fill="#65BAE8" opacity="0.65"></path>
                <path d="M35,63 C38.8659932,63 42,66.1340068 42,70 L28,70 C28,66.1340068 31.1340068,63 35,63 Z" id="Path" fill="#FFFFFF" opacity="0.4"></path>
                <path d="M35,63 C35,66.8659932 31.8659932,70 28,70 L28,56 C31.8659932,56 35,59.1340068 35,63 Z" id="Path" fill="#FFFFFF" opacity="0.25"></path>
                <path d="M21,49 C17.1340068,49 14,45.8659932 14,42 L28,42 C28,45.8659932 24.8659932,49 21,49 Z" id="Path" fill="#9ED1F1" opacity="0.8"></path>
                <path d="M21,49.0466667 C21,52.9126599 17.8659932,56.0466667 14,56.0466667 L14,42.0466667 C17.8659932,42.0466667 21,45.1806734 21,49.0466667 Z" id="Path" fill="#FFFFFF" opacity="0.3"></path>
                <rect id="Rectangle" fill="#65BAE8" opacity="0.7" x="0" y="28" width="28" height="14"></rect>
                <path d="M21,35 C21,31.1340068 24.1340068,28 28,28 L28,42 C24.1340068,42 21,38.8659932 21,35 Z" id="Path" fill="#9ED1F1" opacity="0.88"></path>
                <path d="M21,35 C24.8659932,35 28,38.1340068 28,42 L14,42 C14,38.1340068 17.1340068,35 21,35 Z" id="Path" fill="#3BB3E7" opacity="0.65"></path>
                <polygon id="Path" fill="#0096D9" points="0 14 28 14 28 28 42 28 42 6.21724894e-15 0 6.21724894e-15"></polygon>
            </g>
        </g>
    </g>
</svg>